<?xml version="1.0" encoding="utf-8"?>
<!-- Generator: Adobe Illustrator 24.1.3, SVG Export Plug-In . SVG Version: 6.00 Build 0)  -->
<svg version="1.1" id="Layer_1" xmlns="http://www.w3.org/2000/svg" xmlns:xlink="http://www.w3.org/1999/xlink" x="0px" y="0px"
	 viewBox="0 0 962.91 744.49" style="enable-background:new 0 0 962.91 744.49;" xml:space="preserve">
<g>
	<path d="M6.37,373.1H3.31C3.31,373.1,4.45,373.19,6.37,373.1z"/>
	<path d="M52.54,122.2c0,41.67,0,136.07,0,187.45c0,57.04-35.42,62.96-46.17,63.45h114.36h25.29h57.87c0,0-10.21-4.1-10.21-21.83
		c0-8.78,0-74.89,0-139.78c0,0,0.24-7.75,5.24-7.75s5.33,4.63,5.33,8.64c0,4.01,0,131.97,0,143.14c0,11.17,7.51,17.58,7.51,17.58
		h67.22c0,0-24.14-7.13-24.14-27.18s0-127.87,0-151.75c0-23.88-11.89-35.47-35.68-35.47c-10.89,0-19.31,2.82-25.47,6.53
		c0-47.26,0-85.21,0-86.37c0-3.03-0.27-6.12-6.72-6.12c-6.45,0-186.97,0-186.97,0v0.24v126.18c0,0-0.06-30.83,11.66-52.04
		C22.8,126.94,32.51,122.58,52.54,122.2z M108.04,122.17c0.24,0,0.47,0,0.71,0c16.86,0,34.44,1.07,34.44,48.12s0,168.24,0,181.43
		c0,9.57-5.51,16.5-13.11,19.59c-16.97-4.35-22.03-16-22.03-27.44C108.04,331,108.04,159.21,108.04,122.17z"/>
	<path d="M294.3,373.1c2.79,0,5.16,0,7.2,0c0.01,0,0.01,0,0.02,0c7.4,0,10.18,0,10.18,0c4.49,0,10.94,0,20.24,0
		c32.31,0,41.06-14.02,41.06-27.33c0-13.31,0-68.32,0-68.32c0,45.86-24.61,48.89-35.44,48.89c-10.83,0-23.61-2.91-23.61-15.03
		c0-12.12,9.7-17.11,31-31.6c21.3-14.5,28.05-17.47,28.05-37.07c0-19.6,0-17.7,0-50.14c0-32.44-20.65-33.8-30.06-33.8
		c-4.18,0-7.24,0-9.35,0h-3.79h-6.15c0,0-3.19,0-11.6,0c-4.35,0-10.09,0-17.51,0c-21.77,0-32.31,21.33-32.31,36.53
		c0,15.21,0,116.55,0,141.74S281.41,373.1,294.3,373.1z M311.7,210.92c0,0,0.65-5.93,5.93-5.93s7.28,2.76,7.28,17.47
		c0,14.7-6.52,21.16-9.25,24.04c-2.72,2.88-3.96,0.5-3.96-2.47C311.7,229.18,311.7,216.33,311.7,210.92z"/>
	<path d="M546.96,228.74c4.26,11.88,16.09,15.09,22.48,16.16c5.08,0.85,17.9,10.86,25.52,17.56l-69.24,63.59l55.38,10.6l68.08-60.77
		c1.48-1.22,2.71-1.73,4.35-0.27c2.31,2.05,23.87,22.01,33.73,30.74c9.85,8.73,15.53,5.52,30.26-0.53c0.07-0.03,0.14-0.06,0.22-0.1
		c1.31-0.49,3.32-1.08,4.66-0.71c2.13,0.59,4.2,8.91,9.94,13.49c5.74,4.57,8.7,0.71,17.1-4.99c7.28-4.94,59.53-40.74,73.41-50.25
		l59.24,9.68l28.87-46.93l-85.3-13.66c-6.19-8.85-5.07-28.59-11.33-62.37c-1-5.39-2.15-10.09-3.42-14.28
		c10.18-10.2,41.58-40.97,41.58-40.97l-44.02-18l-21.14,17.29c-2.34-3.8-4.56-8.04-6.55-13.19C770.67,54.62,778.3,0,778.3,0H754.7
		c0,0-0.18,3.83,0,27.36c0.18,23.52-0.41,45.98,11.89,68.91c12.31,22.93,32.42,32.08,38.93,62.61c4.58,21.5,4.65,41.16,4.28,50.92
		l-73.87-11.83l-17.51,8.08l-0.71,40.04l32.61,5.33c-8.43,10.74-27.63,34.5-36.37,39.44c-11.36,6.42-20.15,6.86-23.61,3.92
		c-3.46-2.94-10.47-9.8-20.15-20.58c-9.67-10.78-6.75-18.71-5.33-29.76c1.42-11.05,8.31-51.35,8.31-51.35l0,0
		c0.18-0.76,0.27-1.25,0.27-1.41c-0.06-2.44-4.2-5.52-5.68-2.44s-6.8,12.59-6.8,12.59l-56.24,51.65c-1.15-1.3-2.59-2.94-3.85-4.42
		c-2.57-3.03-4.17-5.79,4.17-18.53c8.34-12.74,25.65-41.88,29.11-47.94c3.46-6.06,1.51-6.59-1.51-7.04
		c-3.02-0.45-3.99,0.8-10.38,8.47c-6.39,7.66-25.56,34.93-29.73,40.72c-4.17,5.79-4.7,12.65-6.12,13.01
		c-1.42,0.36-3.82-0.45-3.55-7.31c0.27-6.86,2.75-17.47,8.96-39.83c6.21-22.37,6.92-24.42,3.82-25.31s-3.82-0.8-7.9,11.94
		c-4.08,12.74-15.71,49.99-16.69,53.2c-0.98,3.21-3.55,2.58-8.17-1.07c-4.62-3.65-6.72-5.85-5.3-14.29
		c1.42-8.44,6.27-35.64,7.93-44.32c1.66-8.67,1.78-10.34,12.19-21.15s64.52-69.77,67.72-73.51c3.2-3.74,2.22-3.03,0.89-14.35
		S639.23,0,639.23,0h-18.37c0,0,9.85,36.89,11.36,51.68c1.51,14.79-8.7,33.59-23.96,49.72c-15.27,16.13-40.49,35.11-51.09,44.29
		c-8.53,7.39-9.64,14.21-10.55,27.81l-53.63-6.55l-30.77,38.97l82.43,13C545.06,222.28,545.78,225.46,546.96,228.74z M737.11,284.35
		c2.43-4.44,5.08-9.28,8.62-14.35c5.17-7.41,10.92-12.96,15.62-16.78l36.11,5.9c-1.19,3.35-3.87,8.56-9.87,15.43
		c-3.39,3.87-8.47,8.28-14.01,12.61c-1.18,0.92-1.87,0.83-3.58-1.15c-1.73-2-8.43-8.24-18.64-5.17c-7.42,2.24-12.46,5.62-14.67,7.3
		C736.8,286.86,736.93,285.6,737.11,284.35z M748.37,289.84c8.28-0.77,11.21,3.39,11.95,4.93c0.73,1.52-2.44,3.81-2.54,3.88
		c-7.06,4.85-12.81,8.51-14.21,9.45c-3.43,2.32-4.67,0.95-5.74-2.38c-0.5-1.57-1-4.81-1.21-8.74
		C736.57,293.63,740.12,290.61,748.37,289.84z"/>
	<path d="M63.13,520.19c6.27,1.66,18.16,11.88,18.16,23.52s0,126.48,0,132.06c0,5.58-1.72,11.47-10.3,11.47s-9.94-8.26-9.94-12.42
		c0-0.22,0-0.45,0-0.65c0-0.7,0-2.35,0-4.81c0-31.74,0-198.63,0-208.34c0-10.46,6.75-10.13,13.02-10.13c6.27,0,204.28,0,204.28,0
		l89.46-54.98c0,0-270.67,0-314.57,0S0.47,424.78,0.47,444.15c0,13.57,0,126.47,0,192.89c0,28.4,0,48.3,0,48.3
		c0,6.05,0,11.78,0,16.57c0,22.28,19.53,36.36,32.48,36.36c12.96,0,51.83,0,64.7,0c12.87,0,20.24-6.15,30.53-6.15
		c10.3,0,12.51,11.91,12.51,11.91s0-189.27,0-201.39c0-12.12,18.93-22.46,18.93-22.46H63.13z"/>
	<path d="M233.39,520.49c-7.5,0-15.65,0-22.27,0c0,0-5.68,0-13.47,0c-6.62,0-14.77,0-22.27,0c-16.33,0-26.74,14.79-26.74,25.96
		c0,11.17,0,124.04,0,151.49c0,27.45,17.51,38.26,29.11,38.26c3.8,0,9.23,0,14.82,0c11.49,0,23.64,0,23.64,0c5.59,0,11.02,0,14.82,0
		c11.6,0,29.11-10.81,29.11-38.26c0-27.45,0-140.32,0-151.49C260.13,535.28,249.72,520.49,233.39,520.49z M210.66,671.61
		c0,2.1,0,3.9,0,5.35c0,3.34-0.12,9.76-6.06,9.76c-0.15,0-0.3,0-0.44,0c-5.95,0-6.06-6.42-6.06-9.76c0-1.44,0-3.25,0-5.35
		c0-21.8,0-75.74,0-97.41c0.34-3.2,1.59-6.98,5.67-6.98c0.41,0,0.82,0,1.24,0c4.07,0,5.33,3.78,5.67,6.98
		C210.66,595.87,210.66,649.81,210.66,671.61z"/>
	<path d="M442.37,696.74c0-7.9,0-64.53,0-122.7h13.22v-53.11h-13.22c0-32.42,0-60.21,0-73.51c0-0.95,0-1.83,0-2.63
		c0-2,1.06-5.26,4.53-5.26c3.46,0,4.17,1.96,4.17,6.24s0,50.78,0,50.78l49.26-31.84c0,0,0-22.93,0-38.61s-7.34-30.18-26.39-30.18
		c-1.23,0-2.46,0-3.7,0c0,0-18.89,0-35.59,0c-3.77,0-7.43,0-10.74,0c-17.93,0-31.51,15.86-31.51,34.22s0,251.11,0,279.09
		c0,13.66-2.09,19.38-4.23,21.67c-2.91-4.38-5.71-12.31-5.71-26.66c0-27.38,0-265.24,0-303.21c0-4.14-3-4.97-4.74-5.11h-1.21
		l-86.62,55.16c0,0,1.86,0,8.88,0c7.01,0,32.22,6.86,32.22,39.3c0,6.81,0,19.84,0,36.18c0,0-2.49-6.06-24.85-6.06
		c-22.37,0-38.34,8.38-38.34,37.07c0,28.69,0,130.81,0,144.71s6.04,33.92,33.9,33.92c15.84,0,27.72-4.57,35.02-8.51
		c1.15,5.77,2.42,8.51,11.07,8.51c5.83,0,23.96,0,35.86,0c6.32,0,10.89,0,10.89,0h78.19C451.07,736.19,442.37,713.67,442.37,696.74z
		 M330.99,673.22c0,0-0.27,10.51-5.77,10.51c-5.5,0-5.41-5.26-5.41-11.05c0-5.79,0-93.8,0-99.27c0-5.47,2.01-6.42,5.33-6.42
		c3.31,0,5.86,0.77,5.86,6.42C330.99,609.87,330.99,649.15,330.99,673.22z"/>
	<path d="M848.24,736.19h114.67c-19.17,0-40.29-11.17-40.29-31.37c0-10.66,0-108.88,0-112.74c0-0.08,0-0.13,0-0.13
		c0-0.36,0-1.63,0-5.52c0-7.01,3.67-18.59,15.09-18.59c11.42,0,21.36,19.25,21.36,34.75c0,0,0-53.05,0-65.52
		c0-12.48-6.92-17.94-19.11-17.94c-12.19,0-24.14,10.1-24.14,21.27v-29.7l-13.61,7.82V250.75l-3.28,5.7v263.93l-37.93,21.78
		c-4.76-19.41-20.07-20.38-27.73-20.38c-4.06,0-7.03,0-9.07,0h-3.68h-5.97c0,0-3.1,0-11.26,0c-4.22,0-9.8,0-17,0
		c-14.67,0-24.08,10.28-28.47,21.65V314.18l-2.89,2.05v0.12v241.97c0,15.21,0,116.55,0,141.74s18.61,36.12,31.13,36.12
		c2.7,0,5.01,0,6.99,0c0.01,0,0.01,0,0.02,0c7.18,0,9.88,0,9.88,0c4.36,0,10.62,0,19.64,0c31.36,0,39.86-14.02,39.86-27.33
		c0-13.31,0-68.32,0-68.32c0,45.86-23.89,48.89-34.4,48.89c-10.51,0-22.92-2.91-22.92-15.03c0-12.12,9.42-17.11,30.1-31.6
		c20.68-14.5,27.22-17.47,27.22-37.07c0-19.6,0-17.7,0-50.14c0-3.33-0.22-6.31-0.61-9.02c5.1,0.41,9.22,2.95,9.22,10.45
		c0,8.26,0,136.78,0,154.96S848.24,736.19,848.24,736.19z M806.79,609.59c-2.64,2.88-3.85,0.5-3.85-2.47c0-14.86,0-27.71,0-33.12
		c0,0,0.63-5.93,5.76-5.93c5.13,0,7.06,2.76,7.06,17.47C815.76,600.25,809.43,606.71,806.79,609.59z"/>
	<path d="M747.77,697.99c0-31.37,0-109.25,0-134.08c0-24.83-2.01-43.6-23.31-43.6c-16.97,0-31.84-1.05-40.47,4.66V389.38
		l-61.8,36.92c0,0,13.28,3.83,13.28,19.16c0,15.33,0,251.41,0,269.94c0,9.05-2.6,14.21-5.25,17.13c-3.44-1.89-9.19-7.58-9.19-24.56
		c0-11.28,0-72.93,0-135.62h9.76v-51.68h-9.76c0-51.66,0-93.7,0-93.7l-49.21,29.18V342.98c0,0-4.83-1.31-4.96-1.4l0.21,117.39
		l-15.08,8.94c0,0,17.75-2.14,17.75,19.43c0,21.56,0,207.86,0,222s10.71,26.85,18.99,26.85c4.32,0,20.93,0,35.86,0h26.03h43.28
		c0,0-9.85-8.55-9.85-21.5c0-12.95,0-131.82,0-138.42s0.98-10.16,6.04-10.16s5.62,8.82,5.62,8.82c0,37.33,0,125.04,0,135.8
		c0,13.72,1.21,19.19,10.18,25.46h64.61C770.49,736.19,747.77,729.36,747.77,697.99z"/>
	<path d="M561.98,707.32c0-18.06,0-129.39,0-148.16s-4.97-38.5-29.58-38.5c-24.61,0-34.55,0-46.62,0
		c-12.07,0-26.86,7.13-26.86,20.55c0,13.43,0,55.96,0,55.96s11.12-32.91,30.41-32.91c6.23,0,8.93,0,10,0c0.49,0,0.64,0,0.63,0
		c0.37,0,0.94,0,1.79,0c7.57,0,10.77,3.09,10.77,10.22s-6.27,10.1-20.95,17.47c-14.67,7.37-37.04,16.04-37.04,44.79
		c0,28.75,0,45.21,0,61.6s6.83,37.84,33.55,37.84s30.44-9.15,30.44-9.15s1.6,9.15,17.48,9.15c15.89,0,39.58,0,39.58,0
		S561.98,725.38,561.98,707.32z M512.28,679.04c0,6.89-1.18,7.9-4.38,7.9s-5.33-2.14-5.33-10.93c0-8.79-2.54-36.65,9.7-47.11
		C512.28,628.9,512.28,672.15,512.28,679.04z"/>
	<path d="M671.09,391.37v-93.36c0,0-3.55-2.73-3.85-2.79v98.38L671.09,391.37z"/>
	<path d="M840.92,517.61c1.21,0.03,3.35,0.68,3.35,0.68V273.56l-3.38-1.41l-0.57-0.19L840.92,517.61z"/>
</g>
</svg>
