<?xml version="1.0" encoding="utf-8"?>
<!-- Generator: Adobe Illustrator 24.1.3, SVG Export Plug-In . SVG Version: 6.00 Build 0)  -->
<svg version="1.1" id="Layer_1" xmlns="http://www.w3.org/2000/svg" xmlns:xlink="http://www.w3.org/1999/xlink" x="0px" y="0px"
	 viewBox="0 0 50 50" style="enable-background:new 0 0 50 50;" xml:space="preserve">
<style type="text/css">
	.st0{fill:#FFFFFF;}
</style>
<g>
	<g>
		<path class="st0" d="M34.08,11.24c-4.7-2.93-11.69-3.6-17.49-0.05c-5.69,3.47-8.27,8.64-8.14,15.19c-2.79,0-5.58,0-8.44,0
			c-0.12-8.36,2.97-15.27,9.62-20.52c4.41-3.48,9.53-5.22,15.18-5.32c5.65-0.1,10.79,1.51,15.41,4.76c0.4-0.38,0.79-0.76,1.18-1.14
			c1.13-1.09,2.26-2.18,3.39-3.27c0.16-0.16,0.33-0.31,0.52-0.44c0.57-0.41,1.2-0.6,1.87-0.26c0.68,0.34,1.02,0.94,1.02,1.68
			c0.02,1.49,0.01,2.99,0,4.48c0,3.83,0,7.66,0,11.49c0,0.9-0.42,1.32-1.33,1.32c-5.36,0-10.72,0-16.08,0.01
			c-0.57,0-1.07-0.14-1.51-0.48c-0.58-0.45-0.81-1.12-0.52-1.78c0.18-0.42,0.45-0.84,0.77-1.17c1.43-1.44,2.9-2.85,4.36-4.28
			C33.95,11.39,34,11.32,34.08,11.24z"/>
		<path class="st0" d="M9.77,44.73c-0.61,0.59-1.21,1.17-1.81,1.75C6.97,47.42,6,48.37,4.99,49.3c-0.26,0.24-0.57,0.46-0.9,0.59
			c-1.06,0.41-2.17-0.33-2.31-1.51c-0.02-0.14-0.02-0.29-0.02-0.43c0-5.25,0-10.5,0-15.76c0-0.88,0.43-1.31,1.32-1.31
			c5.39,0,10.78,0,16.17,0.01c0.25,0,0.51,0.02,0.74,0.1c1.25,0.4,1.68,1.49,1.02,2.61c-0.16,0.26-0.35,0.51-0.57,0.73
			c-1.44,1.42-2.89,2.83-4.34,4.25c-0.06,0.06-0.12,0.13-0.22,0.25c4.95,2.74,10.09,3.32,15.28,1.1c7.16-3.06,10.4-8.69,10.41-16.29
			c2.75,0,5.55,0,8.43,0c0.06,8.98-3.42,16.22-10.9,21.44C30.82,50.85,18.93,51.24,9.77,44.73z"/>
	</g>
</g>
</svg>
